<svg xmlns="http://www.w3.org/2000/svg" id="eVmghE4Pk0j1" shape-rendering="geometricPrecision" style="background-color:transparent" text-rendering="geometricPrecision" viewBox="0 0 800 500"><defs><linearGradient id="eVmghE4Pk0j2-fill-g1" x1=".5" x2=".5" y1="0" y2="1" gradientUnits="objectBoundingBox" spreadMethod="reflect"><stop id="eVmghE4Pk0j2-fill-g1-0" offset="0%" stop-color="#8e1609"/><stop id="eVmghE4Pk0j2-fill-g1-1" offset="100%" stop-color="#000"/></linearGradient><linearGradient id="eVmghE4Pk0j2-fill-g2" x1=".5" x2=".5" y1="0" y2="1" gradientUnits="objectBoundingBox" spreadMethod="reflect"><stop id="eVmghE4Pk0j2-fill-g2-0" offset="0%" stop-color="#000"/><stop id="eVmghE4Pk0j2-fill-g2-1" offset="100%" stop-color="#8e1609"/></linearGradient><linearGradient id="eVmghE4Pk0j4-fill" x1=".232" x2="1" y1=".246" y2="0" gradientUnits="objectBoundingBox" spreadMethod="pad"><stop id="eVmghE4Pk0j4-fill-0" offset="0%" stop-color="#fff"/><stop id="eVmghE4Pk0j4-fill-1" offset="100%" stop-color="#000"/></linearGradient><linearGradient id="eVmghE4Pk0j4-fill-g1" x1=".232" x2="1" y1=".246" y2="0" gradientUnits="objectBoundingBox" spreadMethod="pad"><stop id="eVmghE4Pk0j4-fill-g1-0" offset="0%" stop-color="#fff"/><stop id="eVmghE4Pk0j4-fill-g1-1" offset="100%" stop-color="#000"/></linearGradient><linearGradient id="eVmghE4Pk0j5-fill" x1=".102" x2=".985" y1=".305" y2="1.024" gradientUnits="objectBoundingBox" spreadMethod="pad"><stop id="eVmghE4Pk0j5-fill-0" offset="0%" stop-color="#fff"/><stop id="eVmghE4Pk0j5-fill-1" offset="100%" stop-color="#000"/></linearGradient><linearGradient id="eVmghE4Pk0j5-fill-g1" x1=".102" x2=".985" y1=".305" y2="1.024" gradientUnits="objectBoundingBox" spreadMethod="pad"><stop id="eVmghE4Pk0j5-fill-g1-0" offset="0%" stop-color="#fff"/><stop id="eVmghE4Pk0j5-fill-g1-1" offset="100%" stop-color="#000"/></linearGradient><linearGradient id="eVmghE4Pk0j6-fill" x1=".424" x2=".572" y1="-.402" y2="1.327" gradientUnits="objectBoundingBox" spreadMethod="pad"><stop id="eVmghE4Pk0j6-fill-0" offset="0%" stop-color="#fff"/><stop id="eVmghE4Pk0j6-fill-1" offset="100%" stop-color="#000"/></linearGradient><linearGradient id="eVmghE4Pk0j6-fill-g1" x1=".424" x2=".572" y1="-.402" y2="1.327" gradientUnits="objectBoundingBox" spreadMethod="pad"><stop id="eVmghE4Pk0j6-fill-g1-0" offset="0%" stop-color="#fff"/><stop id="eVmghE4Pk0j6-fill-g1-1" offset="100%" stop-color="#000"/></linearGradient><linearGradient id="eVmghE4Pk0j7-fill" x1="0" x2="1" y1=".5" y2=".5" gradientUnits="objectBoundingBox" spreadMethod="pad"><stop id="eVmghE4Pk0j7-fill-0" offset="0%" stop-color="#fff"/><stop id="eVmghE4Pk0j7-fill-1" offset="100%" stop-color="#000"/></linearGradient><linearGradient id="eVmghE4Pk0j7-fill-g1" x1="0" x2="1" y1=".5" y2=".5" gradientUnits="objectBoundingBox" spreadMethod="pad"><stop id="eVmghE4Pk0j7-fill-g1-0" offset="0%" stop-color="#fff"/><stop id="eVmghE4Pk0j7-fill-g1-1" offset="100%" stop-color="#000"/></linearGradient><linearGradient id="eVmghE4Pk0j8-fill" x1=".5" x2=".5" y1="0" y2="1" gradientUnits="objectBoundingBox" spreadMethod="pad"><stop id="eVmghE4Pk0j8-fill-0" offset="0%" stop-color="rgba(255,255,255,0)"/><stop id="eVmghE4Pk0j8-fill-1" offset="100%" stop-color="#010022"/></linearGradient></defs><path id="eVmghE4Pk0j2" fill="#8e1609" stroke-width="0" d="M51.01 150c0-53.243 44.32-96.405 98.99-96.405S248.99 96.757 248.99 150s-44.32 96.405-98.99 96.405S51.01 203.243 51.01 150" transform="translate(250)"/><g id="eVmghE4Pk0j3" transform="translate(-761.652 -34.218)"><path id="eVmghE4Pk0j4" fill="url(#eVmghE4Pk0j4-fill)" d="M252.24 153.28c-4.654.003-4.78-36.714-9.211-35.292-12.042-36.93-62.444 54.703-90.247-23.117S82.109 110 70.27 159.77a33 33 0 0 0-4.62-.36c-17.16 0-32.49 13.85-33 33.54a4.14 4.14 0 0 0 4.11 4.27c102.707 79.192 96.501 15.7 253.009 15.7 1.187-.007 5.405-16.224 6.184-17.12s.977-3.26.977-3.26-22.044-39.262-44.69-39.26" transform="matrix(1.05771 0 0 .345 447.585 162.187)"/><path id="eVmghE4Pk0j5" fill="url(#eVmghE4Pk0j5-fill)" d="M344.325 251.27c-19.327-52.767-182.347-35.048-281.805 0s182.651 8.697-83.498 53.88c.002 4.388 55.97 7.094 56.474 11.452.451 3.912 12.527-.004 16.465 0 16.609 18.265 124.628 21.86 306.469-11.452 36.696 11.145 207.683-11.614 171.709-11.614-135.903 0-144.066-39.086-185.814-42.267" transform="matrix(1.2138 0 0 .95377 -33.962 19.158)"/><path id="eVmghE4Pk0j6" fill="url(#eVmghE4Pk0j6-fill)" d="M344.325 251.27c-19.327-52.767-182.347-35.048-281.805 0s182.651 8.697-83.498 53.88c.002 4.388 55.97 7.094 56.474 11.452.451 3.912 12.527-.004 16.465 0 16.609 18.265 124.628 21.86 306.469-11.452 36.696 11.145 207.683-11.614 171.709-11.614-135.903 0-144.066-39.086-185.814-42.267" transform="matrix(-.79313 0 0 .62285 664.003 -59.407)"/><path id="eVmghE4Pk0j7" fill="url(#eVmghE4Pk0j7-fill)" d="M344.325 251.27c-19.327-52.767-49.511-153.456-281.805 0s191.807 30.714-74.342 75.897c.002 4.388 67.749-26.376 68.253-22.017.452 3.912 16.251-.004 20.189 0 144.447 12.494 442.883 73.546 281.81 0 36.696 11.145 192.651-13.567 163.327-26.918-132.204-45.527-135.684-23.782-177.432-26.963" transform="matrix(-.43864 0 0 .28295 281.072 70.113)"/></g><rect width="800" height="250" fill="url(#eVmghE4Pk0j8-fill)" stroke-width="0" opacity=".8" rx="0" ry="0" style="mix-blend-mode:multiply" transform="translate(0 250)"/><g opacity=".7" transform="translate(557.143 400)scale(1.42857)"><path fill="#fff" fill-rule="evenodd" d="M100.296 3.591h1.861v8.057h-1.861zm.938-1.328q-.506 0-.849-.317-.342-.331-.342-.814c0-.483.114-.589.342-.8q.343-.332.849-.332c.506 0 .62.106.849.317a.98.98 0 0 1 .342.77q0 .497-.342.844-.328.332-.85.332m17.508 4.768v4.617h-1.862V7.272q0-1.056-.49-1.584-.492-.543-1.4-.543-1.028 0-1.623.633-.596.619-.596 1.796v4.074h-1.86V.452h1.86v4.074a2.96 2.96 0 0 1 1.132-.754 4.1 4.1 0 0 1 1.518-.272q1.504 0 2.412.89.909.891.909 2.64m-11.15 4.724q-1.31 0-2.025-.694-.714-.695-.714-2.022V5.161h-1.31V3.653h1.31V1.812h1.86v1.84h2.13v1.51h-2.13v3.832q0 .588.284.905.282.302.819.302.625 0 1.042-.332l.52 1.343a2.2 2.2 0 0 1-.803.407q-.462.135-.983.136m-13.295-.106-2.055-5.552-2.085 5.552h-1.786l-2.918-8.057h1.757l2.099 5.945 2.188-5.945h1.564l2.144 5.975 2.159-5.975h1.652l-2.933 8.057zM80.712 7.664q0 .196-.03.558h-6.238q.164.891.848 1.419.7.513 1.727.513 1.31 0 2.16-.876l.997 1.162q-.536.65-1.355.981c-.82.331-1.161.332-1.846.332q-1.31 0-2.308-.528a3.84 3.84 0 0 1-1.548-1.464q-.537-.95-.537-2.142 0-1.177.522-2.113.535-.95 1.474-1.478c.939-.528 1.33-.528 2.114-.528q1.161 0 2.07.528A3.54 3.54 0 0 1 80.19 5.49q.52.936.52 2.173m-4.02-2.655q-.894 0-1.519.543-.61.528-.744 1.418h4.511q-.12-.875-.73-1.418t-1.518-.543m-7.676 6.639v-1.041q-.461.572-1.146.86a3.75 3.75 0 0 1-1.489.286q-1.146 0-2.07-.513a3.7 3.7 0 0 1-1.429-1.448q-.52-.95-.52-2.173c0-1.223.173-1.534.52-2.158a3.7 3.7 0 0 1 1.43-1.448q.923-.513 2.07-.513.788 0 1.443.272c.655.272.81.452 1.117.814V.452h1.861v11.196zm-.357-2.701q.313-.573.313-1.328c0-.755-.105-.945-.313-1.328a2.17 2.17 0 0 0-.848-.875 2.3 2.3 0 0 0-1.207-.317q-.669 0-1.206.317-.536.302-.848.875c-.312.573-.313.825-.313 1.328s.104.946.313 1.328.491.679.848.89q.537.302 1.206.302.67 0 1.206-.302.536-.317.85-.89M56.937 3.5q1.757 0 2.68.86.938.845.938 2.565v4.722h-1.757v-.98a2.2 2.2 0 0 1-.983.814q-.626.272-1.518.272c-.892 0-1.117-.1-1.564-.302a2.55 2.55 0 0 1-1.042-.86 2.27 2.27 0 0 1-.357-1.252q0-1.087.789-1.735.804-.664 2.516-.664h2.055v-.12q0-.846-.507-1.298-.49-.453-1.473-.453-.67 0-1.325.211-.641.211-1.087.589l-.73-1.373q.625-.483 1.504-.74c.879-.257 1.206-.256 1.861-.256m-.253 6.88q.699 0 1.236-.317.55-.332.774-.935v-.936h-1.921q-1.608 0-1.608 1.071 0 .513.402.815c.402.302.64.302 1.117.302m-10.691.06h-.864l-3.424-5.703v6.91h-1.847V1.087h1.594l4.139 7 4.064-7h1.593l.015 10.562h-1.831l-.015-7.001zm63.34 18.9v15.15h-3.371v-1.962a5.5 5.5 0 0 1-2.172 1.617 7.4 7.4 0 0 1-2.853.54 8.04 8.04 0 0 1-3.957-.963 6.86 6.86 0 0 1-2.7-2.7 9 9 0 0 1 0-8.16 6.9 6.9 0 0 1 2.7-2.7 8.1 8.1 0 0 1 3.957-.963 7 7 0 0 1 2.7.513c.817.335 1.55.847 2.145 1.5v-.762a1.08 1.08 0 0 1 1.08-1.08zm-4.766 11.01a5.26 5.26 0 0 0 0-6.87 4.64 4.64 0 0 0-6.46 0 5.3 5.3 0 0 0 0 6.87 4.29 4.29 0 0 0 3.223 1.308 4.34 4.34 0 0 0 3.237-1.302zm17.94 3.324a4.2 4.2 0 0 1-1.524.762 6.9 6.9 0 0 1-1.887.255 5.36 5.36 0 0 1-3.864-1.308 5.02 5.02 0 0 1-1.35-3.804v-13.59h2.469a1.08 1.08 0 0 1 1.08 1.08v2.379h4.047V32.3h-4.047v7.2a2.36 2.36 0 0 0 .552 1.692c.406.41.968.628 1.545.597q.34.001.675-.054c.81-.17 1.625.261 1.94 1.026zm5.079.027a7.24 7.24 0 0 1-2.88-2.766 8.28 8.28 0 0 1 0-8.016 7.3 7.3 0 0 1 2.88-2.751 9.2 9.2 0 0 1 8.319 0 7.3 7.3 0 0 1 2.88 2.75 8.28 8.28 0 0 1 0 8.017 7.24 7.24 0 0 1-2.88 2.766 9.2 9.2 0 0 1-8.32 0m7.392-3.37a5.26 5.26 0 0 0 0-6.87 4.64 4.64 0 0 0-6.46 0 5.3 5.3 0 0 0 0 6.87 4.29 4.29 0 0 0 3.223 1.309 4.34 4.34 0 0 0 3.237-1.281zM152 29.172v3.373a4.5 4.5 0 0 0-.822-.087 4.29 4.29 0 0 0-3.222 1.2 4.8 4.8 0 0 0-1.167 3.48v7.353h-3.552V29.34h2.298a1.08 1.08 0 0 1 1.08 1.08v1.134q1.521-2.382 5.385-2.382M44.978 44.215c-1-.245-1.95-.658-2.811-1.221l.62-1.233a1.605 1.605 0 0 1 2.023-.768q.561.232 1.146.399a10.2 10.2 0 0 0 2.826.41q3.177 0 3.183-1.67a1.12 1.12 0 0 0-.81-1.107 14 14 0 0 0-2.595-.6 21 21 0 0 1-3.054-.675 4.7 4.7 0 0 1-2.022-1.296 3.6 3.6 0 0 1-.864-2.568 4.05 4.05 0 0 1 1.8-3.453 8.2 8.2 0 0 1 4.869-1.296c1.054 0 2.104.119 3.132.354a8.8 8.8 0 0 1 2.568.978l-.675 1.296a1.605 1.605 0 0 1-1.983.795 8.8 8.8 0 0 0-3.075-.534 4.8 4.8 0 0 0-2.373.47 1.4 1.4 0 0 0-.81 1.234c-.01.547.341 1.036.864 1.2.874.316 1.78.542 2.7.675 1.008.151 2.004.377 2.979.675.77.234 1.467.664 2.022 1.248.596.692.896 1.59.837 2.502.02 1.38-.68 2.67-1.848 3.405a8.7 8.7 0 0 1-5.022 1.28 13.6 13.6 0 0 1-3.627-.5M89.86 29.34v12.858q0 8.004-8.172 8.004c-1.401.008-2.796-.178-4.146-.552a8.8 8.8 0 0 1-3.237-1.605l1.026-1.713a1.053 1.053 0 0 1 1.446-.342 8.7 8.7 0 0 0 1.632.714 9.9 9.9 0 0 0 3.084.486q2.496 0 3.66-1.134a4.65 4.65 0 0 0 1.167-3.465v-.795a5.84 5.84 0 0 1-2.211 1.5 7.8 7.8 0 0 1-2.865.513 8.2 8.2 0 0 1-3.9-.924 6.9 6.9 0 0 1-2.757-2.595 7.3 7.3 0 0 1-1.005-3.831 7.2 7.2 0 0 1 1.005-3.816 6.86 6.86 0 0 1 2.75-2.568 8.3 8.3 0 0 1 3.9-.9 8 8 0 0 1 3 .54c.882.345 1.66.911 2.26 1.644v-.936a1.08 1.08 0 0 1 1.08-1.08zm-4.782 10.263a4.1 4.1 0 0 0 1.299-3.135 4.05 4.05 0 0 0-1.296-3.096 5.226 5.226 0 0 0-6.642 0 4.05 4.05 0 0 0-1.287 3.096 4.1 4.1 0 0 0 1.287 3.135 5.18 5.18 0 0 0 6.639 0M73.022 29.325 67.13 43.068a2.35 2.35 0 0 1-2.151 1.422h-1.902l5.763-13.404.3-.675a1.78 1.78 0 0 1 1.638-1.071zM62.237 42.588l-5.89-13.236h2.512a1.78 1.78 0 0 1 1.644 1.092l3.492 8.046z" clip-rule="evenodd"/><g mask="url(#eVmghE4Pk0j13)" transform="matrix(.3 0 0 .3 -18.122 -25.906)"><path fill="#fff" d="M129.5 243.584c-8.76 2.18-20.08 1.79-37.33-19.63-2.358-2.928-4.382-6.363-5.934-10.028 3.008.979 6.22 1.508 9.554 1.508 17.032 0 30.84-13.807 30.84-30.84a30.7 30.7 0 0 0-3.854-14.94c22.541-3.147 48.247-1.186 56.014 6.2 12.32 11.73-14.11 59.03-49.29 67.73"/><mask id="eVmghE4Pk0j13" width="400%" height="400%" x="-150%" y="-150%" mask-type="alpha"><path id="eVmghE4Pk0j14" fill="#d2dbed" stroke-width="0" d="M78.375 207.04c0-31.46 25.503-56.964 56.963-56.964s56.963 25.503 56.963 56.963-25.503 56.964-56.963 56.964-56.963-25.504-56.963-56.964m89.235-4.716a1.74 1.74 0 0 0-2-1.41h-.06a9.88 9.88 0 0 1-9-16.37 1.76 1.76 0 0 0 0-2.49l-.11-.1a31.5 31.5 0 0 0-9.11-5.45 1.76 1.76 0 0 0-2.29 1v.06a9.88 9.88 0 0 1-18.7-.18 1.76 1.76 0 0 0-2.2-1.18h-.11a32.6 32.6 0 0 0-9.03 5.12 1.76 1.76 0 0 0-.34 2.47l.1.12a9.88 9.88 0 0 1-9.57 16 1.76 1.76 0 0 0-2.11 1.33v.09a32.6 32.6 0 0 0 0 10.38 1.76 1.76 0 0 0 2 1.5h.11a9.88 9.88 0 0 1 9 16.37 1.76 1.76 0 0 0 0 2.49l.11.1a31.5 31.5 0 0 0 9.11 5.42 1.76 1.76 0 0 0 2.29-1v-.06a9.88 9.88 0 0 1 18.68.16 1.76 1.76 0 0 0 2.2 1.18h.11a32.6 32.6 0 0 0 9.13-5.19 1.76 1.76 0 0 0 .31-2.48l-.1-.12a9.88 9.88 0 0 1 9.47-16.21 1.74 1.74 0 0 0 2.11-1.26v-.09a32.6 32.6 0 0 0 0-10.2m-41.67 4.69a9.41 9.41 0 1 1 18.82 0 9.41 9.41 0 0 1-18.82 0"/></mask></g><path id="eVmghE4Pk0j15" fill="#fff" d="m116.33 114.77-3.64-2.18a3.31 3.31 0 0 1-1.65-2.87v-2a3.31 3.31 0 0 1 1.65-2.87l3.64-2.18a3.31 3.31 0 0 0 1.23-4.52l-1.74-3a3.31 3.31 0 0 0-4.53-1.15l-3.68 2.18a3.31 3.31 0 0 1-3.31 0l-1.7-1a3.31 3.31 0 0 1-1.65-2.87v-4.38a3.31 3.31 0 0 0-3.31-3.31h-3.47a3.31 3.31 0 0 0-3.31 3.31v4.44a3.31 3.31 0 0 1-1.65 2.87l-1.68 1a3.31 3.31 0 0 1-3.31 0L80.56 94A3.31 3.31 0 0 0 76 95.24l-1.74 3a3.31 3.31 0 0 0 1.19 4.53L79.1 105a3.31 3.31 0 0 1 1.65 2.87v2a3.31 3.31 0 0 1-1.65 2.87l-3.61 2.18a3.31 3.31 0 0 0-1.2 4.52l1.74 3a3.31 3.31 0 0 0 4.52 1.2l3.66-2.18a3.31 3.31 0 0 1 3.31 0l1.68 1a3.31 3.31 0 0 1 1.65 2.87V129a3.31 3.31 0 0 0 3.31 3.31h3.46a3.31 3.31 0 0 0 3.31-3.31v-3.77a3.31 3.31 0 0 1 1.65-2.87l1.7-1a3.31 3.31 0 0 1 3.31 0l3.66 2.18a3.31 3.31 0 0 0 4.52-1.21l1.74-3a3.31 3.31 0 0 0-1.14-4.54Zm-20.49.91a7 7 0 1 1 7-7 7 7 0 0 1-7 7" transform="matrix(.3 0 0 .3 -17.65 -2.64)"/></g><script><![CDATA[
(function(s,i,u,o,c,w,d,t,n,x,e,p,a,b){w[o]=w[o]||{};w[o][s]=w[o][s]||[];w[o][s].push(i);e=d.createElementNS(n,t);e.async=true;e.setAttributeNS(x,'href',[u,s,'.','j','s','?','v','=',c].join(''));e.setAttributeNS(null,'src',[u,s,'.','j','s','?','v','=',c].join(''));p=d.getElementsByTagName(t)[0];p.parentNode.insertBefore(e,p);})('5c7f360c',{"root":"eVmghE4Pk0j1","version":"2024-09-05","animations":[{"elements":{"eVmghE4Pk0j2":{"fill":[{"t":0,"v":{"t":"c","v":{"r":142,"g":22,"b":9,"a":1}}},{"t":1500,"v":{"t":"g","s":[{"c":{"r":142,"g":22,"b":9,"a":1},"o":0},{"c":{"r":0,"g":0,"b":0,"a":1},"o":1}],"r":"eVmghE4Pk0j2-fill-g1","gt":[1,0,0,1,0,0],"f":{"x":0.5,"y":0},"to":{"x":0.5,"y":1}}},{"t":3000,"v":{"t":"c","v":{"r":0,"g":0,"b":0,"a":1}}},{"t":4500,"v":{"t":"g","s":[{"c":{"r":0,"g":0,"b":0,"a":1},"o":0},{"c":{"r":142,"g":22,"b":9,"a":1},"o":1}],"r":"eVmghE4Pk0j2-fill-g2","gt":[1,0,0,1,0,0],"f":{"x":0.5,"y":0},"to":{"x":0.5,"y":1}}},{"t":6000,"v":{"t":"c","v":{"r":142,"g":22,"b":9,"a":1}}}]},"eVmghE4Pk0j3":{"transform":{"data":{"t":{"x":-200.009937,"y":-199.996292}},"keys":{"o":[{"t":0,"v":{"x":-561.641922,"y":165.778442,"type":"corner"}},{"t":1500,"v":{"x":-30.02297,"y":177.209794,"type":"corner"}},{"t":3000,"v":{"x":238.358078,"y":158.556498,"type":"corner"}},{"t":4500,"v":{"x":-30.02297,"y":177.209794,"type":"corner"}},{"t":6000,"v":{"x":-561.641922,"y":165.778442,"type":"corner"}}]}}},"eVmghE4Pk0j4":{"fill":[{"t":0,"v":{"t":"g","s":[{"c":{"r":255,"g":255,"b":255,"a":1},"o":0},{"c":{"r":0,"g":0,"b":0,"a":1},"o":1}],"r":"eVmghE4Pk0j4-fill","gt":[1,0,0,1,0,0],"f":{"x":0.232454,"y":0.245744},"to":{"x":1,"y":0}}},{"t":3000,"v":{"t":"c","v":{"r":255,"g":255,"b":255,"a":1}}},{"t":6000,"v":{"t":"g","s":[{"c":{"r":255,"g":255,"b":255,"a":1},"o":0},{"c":{"r":0,"g":0,"b":0,"a":1},"o":1}],"r":"eVmghE4Pk0j4-fill-g1","gt":[1,0,0,1,0,0],"f":{"x":0.232454,"y":0.245744},"to":{"x":1,"y":0}}}]},"eVmghE4Pk0j5":{"fill":[{"t":0,"v":{"t":"g","s":[{"c":{"r":255,"g":255,"b":255,"a":1},"o":0},{"c":{"r":0,"g":0,"b":0,"a":1},"o":1}],"r":"eVmghE4Pk0j5-fill","gt":[1,0,0,1,0,0],"f":{"x":0.102184,"y":0.304585},"to":{"x":0.985121,"y":1.023935}}},{"t":3000,"v":{"t":"c","v":{"r":255,"g":255,"b":255,"a":1}}},{"t":6000,"v":{"t":"g","s":[{"c":{"r":255,"g":255,"b":255,"a":1},"o":0},{"c":{"r":0,"g":0,"b":0,"a":1},"o":1}],"r":"eVmghE4Pk0j5-fill-g1","gt":[1,0,0,1,0,0],"f":{"x":0.102184,"y":0.304585},"to":{"x":0.985121,"y":1.023935}}}]},"eVmghE4Pk0j6":{"fill":[{"t":0,"v":{"t":"g","s":[{"c":{"r":255,"g":255,"b":255,"a":1},"o":0},{"c":{"r":0,"g":0,"b":0,"a":1},"o":1}],"r":"eVmghE4Pk0j6-fill","gt":[1,0,0,1,0,0],"f":{"x":0.423535,"y":-0.401599},"to":{"x":0.572372,"y":1.32706}}},{"t":3000,"v":{"t":"c","v":{"r":255,"g":255,"b":255,"a":1}}},{"t":6000,"v":{"t":"g","s":[{"c":{"r":255,"g":255,"b":255,"a":1},"o":0},{"c":{"r":0,"g":0,"b":0,"a":1},"o":1}],"r":"eVmghE4Pk0j6-fill-g1","gt":[1,0,0,1,0,0],"f":{"x":0.423535,"y":-0.401599},"to":{"x":0.572372,"y":1.32706}}}]},"eVmghE4Pk0j7":{"fill":[{"t":1500,"v":{"t":"g","s":[{"c":{"r":255,"g":255,"b":255,"a":1},"o":0},{"c":{"r":0,"g":0,"b":0,"a":1},"o":1}],"r":"eVmghE4Pk0j7-fill","gt":[1,0,0,1,0,0],"f":{"x":0,"y":0.5},"to":{"x":1,"y":0.5}}},{"t":3000,"v":{"t":"c","v":{"r":255,"g":255,"b":255,"a":1}}},{"t":3130,"v":{"t":"c","v":{"r":255,"g":255,"b":255,"a":1}}},{"t":4630,"v":{"t":"g","s":[{"c":{"r":255,"g":255,"b":255,"a":1},"o":0},{"c":{"r":0,"g":0,"b":0,"a":1},"o":1}],"r":"eVmghE4Pk0j7-fill-g1","gt":[1,0,0,1,0,0],"f":{"x":0,"y":0.5},"to":{"x":1,"y":0.5}}}]},"eVmghE4Pk0j14":{"transform":{"data":{"o":{"x":135.33781,"y":207.03926,"type":"corner"},"t":{"x":-135.33781,"y":-207.03926}},"keys":{"r":[{"t":0,"v":720,"e":[0.415,0.08,0.115,0.955]},{"t":7700,"v":0,"e":[1,0]}]}}},"eVmghE4Pk0j15":{"transform":{"data":{"o":{"x":11.12,"y":29.9,"type":"corner"},"s":{"x":0.3,"y":0.3},"t":{"x":-95.902813,"y":-108.465}},"keys":{"r":[{"t":0,"v":-720,"e":[0.415,0.08,0.115,0.955]},{"t":7700,"v":0,"e":[1,0]}]}}}},"s":"MIDA1ZDlmNDY4ODk5OTEZCODU5ODhkOTNNOTIY0NjVlNWFWNTQ1NDU0FNTA0Njg4OGQ5Njg5VMDg3OTg4ZDkzOTI0NjEVlNTU1MDQ2OGQ5ODgG5OTY4NTk4OGQ5MzkyTOTc0NjVlNTRKNTA0NSk44YThkOTA5MDQ2NWWU1NTUwNDY4NTkwTzkQ4ODk5NjkyODU5ODg5ENDY1ZThhTTg1OTA5NNzg5NTA0Njk3OTQ4OTVg5Vzg4NDZKNWU1NTUNwRjQ2SThhOTQ5NzQ2RNWU1NTU0NTRhMQ|"}],"options":"MEDAxMDg4MmZOODA4MTPZlN2Y4MTJmNDcyZjcY5N2M2ZTcxMmY4YQ|"},'https://cdn.svgator.com/ply/','__SVGATOR_PLAYER__','2024-09-05',window,document,'script','http://www.w3.org/2000/svg','http://www.w3.org/1999/xlink')
]]></script></svg>